<svg width="70" height="67" viewBox="0 0 70 67" fill="none" xmlns="http://www.w3.org/2000/svg">
<path d="M0 53.4478C0 49.8596 2.90888 46.9507 6.49716 46.9507H20.5974V66.0274H6.49716C2.90888 66.0274 0 63.1186 0 59.5303V53.4478Z" fill="#5CC5C7"/>
<path d="M8.98543 5.47961H5.94026C2.65954 5.47961 0 8.13916 0 11.4199V48.4714C0.967662 46.1214 5.94421 43.9096 8.98543 43.9096V5.47961Z" fill="#5CC5C7"/>
<path fill-rule="evenodd" clip-rule="evenodd" d="M39.7684 21.6533L29.8776 31.5441L28.8462 32.5755C28.7996 32.6221 28.7635 32.678 28.7402 32.7397L23.749 45.9561C23.6361 46.2551 23.9285 46.5475 24.2275 46.4346L37.4439 41.4433C37.5055 41.4201 37.5615 41.3839 37.6081 41.3373L38.6394 40.306L57.2921 21.6533H64.9719V66.0275H11.7505V46.7434V21.6533H39.7684Z" fill="#5CC5C7"/>
<path d="M68.031 4.87346L65.1265 1.96894C64.0391 0.881523 62.276 0.881525 61.1886 1.96894L31.7802 31.3773C34.3706 31.3284 38.7399 35.6782 38.6226 38.2197L68.031 8.81134C69.1184 7.72392 69.1184 5.96088 68.031 4.87346Z" fill="#74DCDF"/>
<path d="M26.4793 44.0085L37.4318 39.2891C37.5661 39.2313 37.669 39.1136 37.6837 38.9681C37.9276 36.5603 33.589 32.3775 31.0704 32.3419C30.9043 32.3395 30.7622 32.4488 30.6965 32.6014L25.9915 43.5206C25.8586 43.829 26.1709 44.1414 26.4793 44.0085Z" fill="#74DCDF"/>
</svg>
