<svg width="70" height="35" viewBox="0 0 70 35" fill="none" xmlns="http://www.w3.org/2000/svg">
<path d="M70.0001 12.8339C68.8438 13.0667 61.7514 13.8426 56.2779 13.0667L53.5026 26.3357C53.5026 26.4133 53.3484 27.034 53.1942 27.2668C52.9629 27.4996 49.4938 30.8363 46.256 33.1642C47.4895 33.4745 48.6458 33.7849 50.1106 34.0177C57.5884 35.1817 62.291 35.1817 67.1478 33.8625L62.1368 23.0766L70.0001 12.8339Z" fill="#5CC5C7"/>
<path d="M45.7892 26.4919L44.4787 32.0789C46.483 30.6822 48.8729 28.6646 50.4918 27.1127C49.4896 26.9575 47.7936 26.7247 45.7892 26.4919Z" fill="#5CC5C7"/>
<path d="M16.1892 26.2575L13.2597 13.2989C7.86332 13.9973 1.07928 13.2989 0 12.9885L7.86332 23.2313L2.77529 34.0172C7.63205 35.2587 12.4117 35.3363 19.8125 34.1724C21.2772 33.9396 22.5107 33.6292 23.6671 33.3188C20.4292 30.9909 16.9601 27.5767 16.7288 27.4215C16.7288 27.2663 16.1892 26.5679 16.1892 26.2575Z" fill="#5CC5C7"/>
<path d="M19.1177 27.0339C20.7366 28.5858 23.2806 30.7585 25.4392 32.2328L24.0516 26.4131C21.9701 26.6459 20.197 26.8787 19.1177 27.0339Z" fill="#5CC5C7"/>
<path d="M46.1015 25.0941C47.8747 25.3269 50.0332 25.4821 51.8063 25.9477C51.8834 25.8701 51.9605 25.7925 52.0376 25.7925C53.5794 18.4984 55.1212 11.2044 56.6631 3.83269C44.791 -1.05589 25.0556 -1.52147 12.4126 3.91029C14.1086 11.2044 15.7275 18.576 17.4235 25.8701C17.5006 25.8701 17.5777 25.8701 17.5777 25.8701C26.3661 23.3094 37.6986 24.163 46.1015 25.0941ZM35.0004 18.188L29.0643 21.0591L29.9124 14.4634L25.364 9.65243L31.8396 8.41089L35.0004 2.59115L38.1611 8.41089L44.6368 9.65243L40.0884 14.4634L40.9364 21.0591L35.0004 18.188Z" fill="#74DCDF"/>
</svg>
